<svg xmlns="http://www.w3.org/2000/svg" width="24" height="24" viewBox="0 0 24 24">
  <metadata><?xpacket begin="﻿" id="W5M0MpCehiHzreSzNTczkc9d"?>
<x:xmpmeta xmlns:x="adobe:ns:meta/" x:xmptk="Adobe XMP Core 5.6-c138 79.159824, 2016/09/14-01:09:01        ">
   <rdf:RDF xmlns:rdf="http://www.w3.org/1999/02/22-rdf-syntax-ns#">
      <rdf:Description rdf:about=""/>
   </rdf:RDF>
</x:xmpmeta>
                                                                                                    
                                                                                                    
                                                                                                    
                                                                                                    
                                                                                                    
                                                                                                    
                                                                                                    
                                                                                                    
                                                                                                    
                                                                                                    
                                                                                                    
                                                                                                    
                                                                                                    
                                                                                                    
                                                                                                    
                                                                                                    
                                                                                                    
                                                                                                    
                                                                                                    
                                                                                                    
                           
<?xpacket end="w"?></metadata>
<defs>
    <style>
      .cls-1 {
        fill: #adb8b2;
        fill-rule: evenodd;
      }
    </style>
  </defs>
  <path id="ig" class="cls-1" d="M12,24A11.919,11.919,0,0,1,0,12.166,11.919,11.919,0,0,1,12,.335,11.919,11.919,0,0,1,24,12.166,11.919,11.919,0,0,1,12,24ZM18.373,9.657a3.688,3.688,0,0,0-1.045-2.689,3.791,3.791,0,0,0-2.744-1.045H9.2A3.561,3.561,0,0,0,5.415,9.657v5.275a3.694,3.694,0,0,0,1.091,2.75,3.85,3.85,0,0,0,2.727,1.013h5.321a3.867,3.867,0,0,0,2.75-1.011,3.668,3.668,0,0,0,1.068-2.723v-5.3Zm-3.818,7.862H9.233a2.676,2.676,0,0,1-1.9-.681,2.558,2.558,0,0,1-.729-1.907V9.657a2.552,2.552,0,0,1,.7-1.877A2.638,2.638,0,0,1,9.2,7.1h5.381a2.618,2.618,0,0,1,1.9.7,2.548,2.548,0,0,1,.7,1.861v5.3a2.533,2.533,0,0,1-.708,1.882A2.7,2.7,0,0,1,14.555,17.519ZM11.894,8.987a3.286,3.286,0,1,0,3.334,3.286A3.314,3.314,0,0,0,11.894,8.987Zm3.459-.826a0.746,0.746,0,1,0,.757.746A0.752,0.752,0,0,0,15.353,8.161Zm-3.459,6.222a2.11,2.11,0,1,1,2.141-2.11A2.128,2.128,0,0,1,11.894,14.383Z"/>
</svg>
