<svg xmlns="http://www.w3.org/2000/svg" width="2596" height="854" viewBox="0 0 2596 854">
  <metadata><?xpacket begin="﻿" id="W5M0MpCehiHzreSzNTczkc9d"?>
<x:xmpmeta xmlns:x="adobe:ns:meta/" x:xmptk="Adobe XMP Core 5.6-c138 79.159824, 2016/09/14-01:09:01        ">
   <rdf:RDF xmlns:rdf="http://www.w3.org/1999/02/22-rdf-syntax-ns#">
      <rdf:Description rdf:about=""/>
   </rdf:RDF>
</x:xmpmeta>
                                                                                                    
                                                                                                    
                                                                                                    
                                                                                                    
                                                                                                    
                                                                                                    
                                                                                                    
                                                                                                    
                                                                                                    
                                                                                                    
                                                                                                    
                                                                                                    
                                                                                                    
                                                                                                    
                                                                                                    
                                                                                                    
                                                                                                    
                                                                                                    
                                                                                                    
                                                                                                    
                           
<?xpacket end="w"?></metadata>
<defs>
    <style>
      .cls-1 {
        fill: #e5af36;
      }

      .cls-1, .cls-2, .cls-3, .cls-4, .cls-5, .cls-6, .cls-7 {
        fill-rule: evenodd;
      }

      .cls-2 {
        fill: #e27a00;
      }

      .cls-3 {
        fill: #f58301;
      }

      .cls-4 {
        fill: #f34b01;
      }

      .cls-5 {
        fill: #a2b423;
      }

      .cls-6 {
        fill: #d54991;
      }

      .cls-7 {
        fill: #496255;
      }
    </style>
  </defs>
  <path id="petalo_derecho" data-name="petalo derecho" class="cls-1" d="M938.052,427.567H937.5c-53.988,34.153-77.75,95.561-155.289,126.665-144.552,57.985-218.924-44.676-252.792-79C505.614,451.1,483,426.253,483,426.253s23.593-24.686,47.667-48.348c25.161-24.73,108.431-134.764,251.546-77.356,77.539,31.1,101.3,92.513,155.289,126.666h0.55l-0.275.176C937.87,427.449,937.96,427.509,938.052,427.567Zm-279.8-108.629a107.846,107.846,0,0,0-61.322,19.032l18.95,26.595a75.7,75.7,0,1,1-.819,124.894l-18.952,26.6A108.355,108.355,0,1,0,658.249,318.938ZM598.044,427.3a60.2,60.2,0,1,0,60.2-60.2A60.193,60.193,0,0,0,598.044,427.3Z"/>
  <path id="encima_petalo_derecho" data-name="encima petalo derecho" class="cls-2" d="M741.713,299.549c77.539,31.1,101.3,92.513,155.29,126.666h0.549c-0.092.058-.182,0.118-0.275,0.176,0.093,0.058.183,0.118,0.275,0.176H897c-53.989,34.153-77.751,95.561-155.29,126.665-47.681,19.127-88.445,13.716-122.633-3.553,40.97,21.463,95.05,30.864,163.133,3.553,77.539-31.1,101.3-92.512,155.29-126.665h0.549c-0.092-.058-0.182-0.118-0.275-0.176,0.093-.058.183-0.118,0.275-0.176H937.5c-53.989-34.153-77.751-95.562-155.29-126.666-55.855-22.4-104.09-18.11-143.117-3.54C669.441,285.728,703.806,284.343,741.713,299.549Z"/>
  <path id="petalo_izquierdo" data-name="petalo izquierdo" class="cls-3" d="M409.579,475.227c-33.868,34.329-108.241,136.99-252.792,79.005C79.248,523.128,55.486,461.72,1.5,427.567H0.947c0.092-.058.182-0.118,0.275-0.176-0.092-.058-0.183-0.118-0.275-0.176H1.5c53.989-34.153,77.751-95.562,155.29-126.666,143.115-57.408,226.385,52.626,251.545,77.356C432.406,401.567,456,426.253,456,426.253S433.386,451.1,409.579,475.227Zm-85.638,14.232a75.69,75.69,0,1,1-.818-124.894l18.95-26.595a108.363,108.363,0,1,0,.821,178.086ZM340.956,427.3a60.2,60.2,0,1,0-60.2,60.2A60.207,60.207,0,0,0,340.956,427.3Z"/>
  <path id="encima_petalo_izquierdo" data-name="encima petalo izquierdo" class="cls-4" d="M197.287,299.549c-77.539,31.1-101.3,92.513-155.29,126.666h-0.55c0.093,0.058.183,0.118,0.275,0.176-0.092.058-.182,0.118-0.275,0.176H42c53.989,34.153,77.751,95.561,155.29,126.665,47.68,19.127,88.445,13.716,122.632-3.553-40.969,21.463-95.05,30.864-163.132,3.553C79.248,522.128,55.486,460.72,1.5,426.567H0.947c0.092-.058.183-0.118,0.275-0.176-0.092-.058-0.182-0.118-0.275-0.176H1.5c53.989-34.153,77.751-95.562,155.29-126.666,55.855-22.4,104.089-18.11,143.117-3.54C269.559,285.728,235.194,284.343,197.287,299.549Z"/>
  <path id="rombo_arriba" data-name="rombo arriba" class="cls-5" d="M469.293,413.565L262.817,207.09,469.293,0.614,675.768,207.09ZM469.3,297.956a60.2,60.2,0,1,0-60.2-60.2A60.194,60.194,0,0,0,469.3,297.956ZM469.3,129.394A108.345,108.345,0,0,0,379.97,299.073l26.595-18.951a75.7,75.7,0,1,1,124.894.819l26.6,18.953A108.341,108.341,0,0,0,469.3,129.394Z"/>
  <path id="rombo_debajo" data-name="rombo debajo" class="cls-6" d="M470.707,853.385L264.231,646.91,470.707,440.435,677.182,646.91ZM470.7,556.543a60.2,60.2,0,1,0,60.2,60.2A60.2,60.2,0,0,0,470.7,556.543Zm62.737,17.834a75.7,75.7,0,1,1-124.894-.819l-26.6-18.953a108.36,108.36,0,1,0,178.085.822Z"/>
  <path id="CIGESI" class="cls-7" d="M2504.39,717.636V333.853c0-42.123,11.04-70.661,25.42-89.968,26.96-36.17,65.68-39.943,65.68-39.943V717.636h-91.1Zm-208.37,6.625c-89.44,0-135.82-53-135.82-145.752V542.9h86.13v41.407c0,41.407,18.22,56.313,47.21,56.313s47.2-14.906,47.2-56.313c0-119.251-178.06-141.61-178.06-307.237,0-92.751,45.55-145.752,134.17-145.752s134.16,53,134.16,145.752v18.219h-86.13V271.272c0-41.407-16.56-57.141-45.55-57.141s-45.55,15.734-45.55,57.141c0,119.251,178.06,141.611,178.06,307.237C2431.84,671.26,2385.46,724.261,2296.02,724.261ZM2097,634.822c5.49,32.249,15.94,59.986,31.25,82.814H1881.73V137.942h246.49c-14.12,23.046-23.61,50.771-28.41,82.814H1972.82V386.9h122.52v82.813H1972.82V634.822H2097Zm-422.89,89.439c-89.44,0-135.82-53-135.82-145.752V277.069c0-92.751,46.38-145.752,135.82-145.752s135.82,53,135.82,145.752v56.313H1723.8v-62.11c0-41.407-18.22-57.141-47.2-57.141s-47.21,15.734-47.21,57.141V584.306c0,41.407,18.22,56.313,47.21,56.313s47.2-14.906,47.2-56.313V469.318h-41.41V386.505h127.54v192C1809.93,671.26,1763.56,724.261,1674.11,724.261ZM1374.22,137.942h91.09V717.636h-91.09V137.942ZM1166.17,724.261c-89.44,0-135.82-53-135.82-145.752V277.069c0-92.751,46.38-145.752,135.82-145.752s135.82,53,135.82,145.752v56.313h-86.13v-62.11c0-41.407-18.22-57.141-47.21-57.141s-47.2,15.734-47.2,57.141V584.306c0,41.407,18.22,56.313,47.2,56.313s47.21-14.906,47.21-56.313V522.472h86.13v56.037C1301.99,671.26,1255.61,724.261,1166.17,724.261Z"/>
  <path id="I_Arriba" data-name="I Arriba" class="cls-3" d="M2524,223c-8.1,9.258-14.69,18.88-19.61,30.924V137.942h91.1v47.634S2558.39,183.693,2524,223Z"/>
</svg>
