<svg xmlns="http://www.w3.org/2000/svg" width="25" height="24" viewBox="0 0 25 24">
  <metadata><?xpacket begin="﻿" id="W5M0MpCehiHzreSzNTczkc9d"?>
<x:xmpmeta xmlns:x="adobe:ns:meta/" x:xmptk="Adobe XMP Core 5.6-c138 79.159824, 2016/09/14-01:09:01        ">
   <rdf:RDF xmlns:rdf="http://www.w3.org/1999/02/22-rdf-syntax-ns#">
      <rdf:Description rdf:about=""/>
   </rdf:RDF>
</x:xmpmeta>
                                                                                                    
                                                                                                    
                                                                                                    
                                                                                                    
                                                                                                    
                                                                                                    
                                                                                                    
                                                                                                    
                                                                                                    
                                                                                                    
                                                                                                    
                                                                                                    
                                                                                                    
                                                                                                    
                                                                                                    
                                                                                                    
                                                                                                    
                                                                                                    
                                                                                                    
                                                                                                    
                           
<?xpacket end="w"?></metadata>
<defs>
    <style>
      .cls-1 {
        fill: #adb8b2;
        fill-rule: evenodd;
      }
    </style>
  </defs>
  <path id="tw" class="cls-1" d="M12.38,0.087A11.927,11.927,0,0,0,.372,11.93,11.926,11.926,0,0,0,12.38,23.772,11.925,11.925,0,0,0,24.387,11.93,11.926,11.926,0,0,0,12.38.087Zm6.049,9.455c0.006,0.128.008,0.257,0.008,0.386a8.489,8.489,0,0,1-8.61,8.492A8.655,8.655,0,0,1,5.189,17.08a6.368,6.368,0,0,0,.722.041,6.126,6.126,0,0,0,3.758-1.277,3.025,3.025,0,0,1-2.826-2.073,3.019,3.019,0,0,0,.569.053,3.057,3.057,0,0,0,.8-0.1,3,3,0,0,1-2.428-2.926c0-.013,0-0.025,0-0.038a3.049,3.049,0,0,0,1.371.374A2.974,2.974,0,0,1,5.806,8.645a2.938,2.938,0,0,1,.41-1.5,8.631,8.631,0,0,0,6.237,3.118,2.958,2.958,0,0,1-.078-0.68A3.006,3.006,0,0,1,15.4,6.6a3.042,3.042,0,0,1,2.209.942,6.1,6.1,0,0,0,1.922-.724A3,3,0,0,1,18.2,8.467,6.12,6.12,0,0,0,19.939,8,6.1,6.1,0,0,1,18.429,9.542Z"/>
</svg>
